<svg xmlns="http://www.w3.org/2000/svg" viewBox="0 0 32 32" shape-rendering="crispEdges">
  <title>Brilly turtle</title>
  <g>
    <!-- Head -->
    <path fill="#2b2c2c" d="M8 3h12v1h3v2h1v6h-1v2h-2v1H9v-1H7v-2H6V6h1V4h1z"/>
    <path fill="#83d4e8" d="M8 5h12v1h2v6h-2v1H9v-1H8z"/>
    <path fill="#6fc5dc" d="M8 10h12v2H9v-1H8z"/>
    <path fill="#2b2c2c" d="M8 12h1v1H8zM10 12h1v1h-1zM18 12h3v1h-3z"/>

    <!-- Angled sunglasses -->
    <path fill="#151616" d="M7 5h3v1h1v5H8v-1H7zM13 4h7v1h2v2h-1v2h-1v2h-6v-1h-1z"/>
    <path fill="#f7f7f2" d="M8 6h1v3H8zM15 5h3v1h-1v1h-1v1h-1z"/>
    <path fill="#151616" d="M11 8h3v1h-3z"/>

    <!-- Left arm -->
    <path fill="#2b2c2c" d="M6 13h4v1h1v3h-1v1H5v-1H4v-3h2z"/>
    <path fill="#83d4e8" d="M6 14h4v3H5v-2h1z"/>
    <path fill="#2b2c2c" d="M5 17h2v1H5z"/>

    <!-- Body belly -->
    <path fill="#2b2c2c" d="M10 13h10v1h2v6h-1v2h-2v1h-7v-1h-2v-2H9v-6h1z"/>
    <path fill="#ded4b8" d="M11 14h8v1h1v5h-1v1h-6v-1h-1v-2h-1z"/>
    <path fill="#8a7c65" d="M15 14h1v7h-1zM11 17h9v1h-9zM12 20h7v1h-7z"/>

    <!-- Brown shell -->
    <path fill="#2b2c2c" d="M20 11h4v1h2v2h1v6h-1v1h-5v-1h-1z"/>
    <path fill="#b77b66" d="M21 12h3v1h1v2h1v4h-1v1h-4z"/>
    <path fill="#7b544a" d="M22 13h1v7h-1zM24 14h1v5h-1z"/>
    <path fill="#d09a86" d="M23 12h1v2h-1zM25 16h1v2h-1z"/>

    <!-- Curled tail -->
    <path fill="#2b2c2c" d="M23 19h4v1h2v2h1v3h-1v1h-5v-1h2v-1h1v-2h-1v-1h-3z"/>
    <path fill="#83d4e8" d="M24 20h3v1h1v4h-2v-1h1v-2h-1v-1h-2z"/>

    <!-- Legs -->
    <path fill="#2b2c2c" d="M10 21h4v1h1v4h-1v1h-4v-1H9v-3h1zM18 21h4v1h1v4h-1v1h-4v-1h-1v-3h1z"/>
    <path fill="#83d4e8" d="M10 22h4v3h-1v1h-3zM18 22h4v3h-1v1h-3z"/>
    <path fill="#2b2c2c" d="M11 26h1v1h-1zM13 25h1v1h-1zM19 26h1v1h-1zM21 25h1v1h-1z"/>

    <!-- Right arm -->
    <path fill="#2b2c2c" d="M20 14h3v1h1v3h-1v1h-4v-1h-1v-2h1v-1h1z"/>
    <path fill="#83d4e8" d="M20 15h3v3h-4v-2h1z"/>
  </g>
</svg>
